<svg id="Слой_1" data-name="Слой 1" xmlns="http://www.w3.org/2000/svg" viewBox="0 0 376.98 28.65"><title>bgrs_payments_set</title><path d="M22.43,9.72l-3,14.14H15.75l3-14.14Zm15.39,9.13,1.93-5.31,1.11,5.31Zm4.08,5h3.39l-3-14.14H39.2a1.67,1.67,0,0,0-1.54,1h0l-5.48,13.1H36l.76-2.11h4.69Zm-9.54-4.62c0-3.73-5.16-3.93-5.13-5.6,0-.51.5-1.05,1.55-1.19.2,0,.43,0,.66,0a6.81,6.81,0,0,1,3,.69l0,0,.64-3a9.59,9.59,0,0,0-3.42-.63h0c-3.62,0-6.16,1.92-6.18,4.68,0,2,1.81,3.16,3.2,3.84s1.91,1.14,1.9,1.76c0,1-1.14,1.37-2.19,1.38h-.16a7.67,7.67,0,0,1-3.64-.91l0,0-.66,3.1a11,11,0,0,0,4,.75H26c3.84,0,6.35-1.9,6.37-4.84ZM17.21,9.72,11.28,23.86H7.42L4.5,12.58a1.54,1.54,0,0,0-.86-1.24h0A14.78,14.78,0,0,0,.12,10.15l-.1,0,.09-.41H6.34A1.71,1.71,0,0,1,8,11.15H8l1.54,8.18,3.81-9.62Z" transform="translate(-0.02 -1.16)"/><path d="M78.57,27.17a11,11,0,0,0,7.16-2.66,11,11,0,1,0,0-16.62,11,11,0,1,0-7.16,19.28ZM101,16.2a8.1,8.1,0,0,1-13.36,6.17,10.94,10.94,0,0,0,0-12.35A8.1,8.1,0,0,1,101,16.2Z" transform="translate(-0.02 -1.16)"/><path d="M166.39,26.68h-1.86V18.94h4.27l.41,0a4.42,4.42,0,0,1,1.85.4h0a1.82,1.82,0,0,1,.95,1.6V21h0v.07a2.17,2.17,0,0,1-1.3,2h0a1.91,1.91,0,0,1,.9.64h0a2.24,2.24,0,0,1,.32,1.16,2.28,2.28,0,0,1,0,.26h0v1.53H170v-1a2,2,0,0,0,0-.36,2.18,2.18,0,0,0-.33-1.16h0a1.79,1.79,0,0,0-1.09-.37,1.33,1.33,0,0,0-.28,0h-2v2.83Zm0-6.14v1.74h2.41a1.78,1.78,0,0,0,.77-.18h0a.84.84,0,0,0,.38-.7v-.05h0v-.05a.74.74,0,0,0-.38-.65h0a1.77,1.77,0,0,0-.73-.15h-2.44ZM149.9,26.68h-7.33V18.94H150l2.28,2.54,2.35-2.54h5.91c2.1,0,3.12.84,3.12,2.55s-1.06,2.6-3.22,2.6h-2.31v2.59h-3.6l-2.28-2.56-2.36,2.56Zm6.4-6.91-2.85,3.05L156.3,26Zm-11.88,3.76v1.54H149l2.11-2.27-2-2.26h-4.63V22h4.07v1.58Zm13.72-3v2h2.39c.73,0,1.15-.37,1.15-1s-.39-.95-1.13-.95Zm33,6.14h-3.57V25h3.69a1,1,0,0,0,.62-.2h0a.65.65,0,0,0,.22-.5h0v0a.68.68,0,0,0-.22-.49,1,1,0,0,0-.55-.17h-.45c-1.67,0-3.56-.09-3.56-2.38,0-1.12.7-2.31,2.65-2.31h3.69v1.65h-3.51a1.26,1.26,0,0,0-.61.16h0a.59.59,0,0,0-.27.5v.05h0v0a.57.57,0,0,0,.41.55h0a2,2,0,0,0,.61.1h.1l1,0,.29,0a2.9,2.9,0,0,1,1.82.64h0a.71.71,0,0,1,.15.15h0l0,2.94a2.86,2.86,0,0,1-2.19,1l-.33,0Zm-7.22,0h-3.6V25H184a1,1,0,0,0,.62-.2h0a.68.68,0,0,0,.21-.5h0a.67.67,0,0,0-.22-.5,1,1,0,0,0-.56-.17h-.44c-1.67,0-3.56-.09-3.56-2.38,0-1.12.7-2.31,2.65-2.31h3.71v1.65h-3.53a1.23,1.23,0,0,0-.61.16h0a.64.64,0,0,0-.28.53.66.66,0,0,0,.4.6h0A2,2,0,0,0,183,22h.11l1,0h.28a2.93,2.93,0,0,1,1.84.64h0a2.14,2.14,0,0,1,.57,1.45c0,.07,0,.13,0,.19h0c0,1.62-1,2.44-2.9,2.44Zm-4.71,0H173V18.94h6.17v1.6h-4.32V22h4.22v1.57h-4.22v1.54h4.33v1.61Zm3.6-11.19H179l-.72-1.72h-3.84l-.7,1.72h-2.37a4,4,0,0,1-2.48-.87h0a3.87,3.87,0,0,1-1-2.62c0-.12,0-.24,0-.36v0c0-.1,0-.22,0-.34a4.08,4.08,0,0,1,1-2.69h0a3.7,3.7,0,0,1,2.45-.91h2.15V9.4h-2a1.75,1.75,0,0,0-1.2.47h0a2.53,2.53,0,0,0-.54,1.57,1.15,1.15,0,0,0,0,.19h0a1.79,1.79,0,0,0,0,.24,2.69,2.69,0,0,0,.53,1.59h0a1.82,1.82,0,0,0,1.14.41h1l2.62-6.09h2.78L181,15.05V7.74h2.81L187,13.13V7.74h1.91v7.74h-2.64l-3.51-5.81v5.81Zm-6.4-6.43-1.27,3.09h2.55Zm-17.91,6.43h-1.85V7.75h4.26a3,3,0,0,1,.44,0,4.33,4.33,0,0,1,1.83.4h0a1.82,1.82,0,0,1,.94,1.59.57.57,0,0,1,0,.13h0v.06a2.19,2.19,0,0,1-1.29,2h0a2.07,2.07,0,0,1,.91.64h0A2.18,2.18,0,0,1,164,13.7a2.64,2.64,0,0,1,0,.28h0v1.52h-1.86V14.36a2.13,2.13,0,0,0,0-.27,2.05,2.05,0,0,0-.32-1.1h0a1.83,1.83,0,0,0-1.08-.35l-.28,0h-2v2.82Zm0-6.13v1.72h2.42a1.69,1.69,0,0,0,.75-.18h0a.82.82,0,0,0,.38-.69v-.05h0v0a.71.71,0,0,0-.38-.64h0a2,2,0,0,0-.74-.15h-2.41Zm-19.59,6.13h-3.75l-.71-1.73h-3.86l-.71,1.73h-2l3.32-7.74h2.75L137,15.07V7.75h3L142.48,13l2.22-5.25h3.08v7.73h-1.9V9.43l-2.68,6.06h-1.62l-2.69-6.07v6.07Zm-6.4-6.43-1.26,3.09h2.53ZM167,15.49h-1.89V7.75H167v7.73Zm-11.68,0h-6.17V7.75h6.18V9.36H151v1.39h4.23v1.59H151v1.55h4.33v1.59Z" transform="translate(-0.02 -1.16)"/><path d="M232.27,5.07a4.52,4.52,0,0,1-3.64,1.72A5.15,5.15,0,0,1,229.93,3a5.48,5.48,0,0,1,3.63-1.86,5.52,5.52,0,0,1-1.29,3.91m1.26,2c-2-.11-3.73,1.15-4.68,1.15s-2.43-1.09-4-1.06a6,6,0,0,0-5,3.07c-2.18,3.74-.57,9.25,1.54,12.3,1,1.5,2.25,3.15,3.87,3.1s2.14-1,4-1,2.41,1,4,1,2.73-1.5,3.76-3a13.36,13.36,0,0,0,1.68-3.45,5.48,5.48,0,0,1-3.28-5A5.56,5.56,0,0,1,238,9.5a5.73,5.73,0,0,0-4.49-2.44m11.55,0V25h2.78V18.84h3.85a5.68,5.68,0,0,0,6-5.9,5.6,5.6,0,0,0-5.88-5.87Zm2.78,2.33h3.2c2.42,0,3.79,1.29,3.79,3.55s-1.37,3.56-3.8,3.56h-3.19V9.4Zm14.88,15.68a4.58,4.58,0,0,0,4.09-2.28h.06V25h2.57v-8.9c0-2.58-2.07-4.25-5.24-4.25-3,0-5.13,1.69-5.21,4h2.5A2.45,2.45,0,0,1,264.14,14c1.69,0,2.65.79,2.65,2.25v1l-3.47.21c-3.22.2-5,1.52-5,3.81s1.8,3.85,4.38,3.85Zm.75-2.12c-1.47,0-2.42-.71-2.42-1.79s.91-1.78,2.64-1.89l3.09-.19v1A3,3,0,0,1,263.49,23Zm9.41,6.85c2.7,0,4-1,5.09-4.17L282.86,12H280l-3.26,10.56h-.06L273.45,12h-2.9l4.7,13-.26.79a2.21,2.21,0,0,1-2.34,1.86c-.22,0-.64,0-.82,0v2.15c.17,0,.86.06,1.07.06Z" transform="translate(-0.02 -1.16)"/><path d="M317.42,9.84a3.27,3.27,0,0,0-1.22-1.31,5.67,5.67,0,0,0-1.94-.72,16.58,16.58,0,0,0-2.63-.2H307a1.17,1.17,0,0,0-1.07.85l-3.13,13.63a.66.66,0,0,0,.67.85h2.23a1.14,1.14,0,0,0,1.07-.85l.76-3.31a1.15,1.15,0,0,1,1.07-.84h.64a10.51,10.51,0,0,0,6.35-1.68,5.21,5.21,0,0,0,2.27-4.41A4.19,4.19,0,0,0,317.42,9.84Zm-4.81,4.45a4.64,4.64,0,0,1-2.82.74h-.54a.67.67,0,0,1-.68-.85l.67-2.89a1.14,1.14,0,0,1,1.06-.85H311a3.51,3.51,0,0,1,1.94.43,1.45,1.45,0,0,1,.64,1.33A2.39,2.39,0,0,1,312.61,14.29Z" transform="translate(-0.02 -1.16)"/><path d="M343.3,11.25h-2.67a1.9,1.9,0,0,0-1.4.85s-3.19,5.47-3.5,6h-.37l-1-6a1.22,1.22,0,0,0-1.21-.87h-2a.66.66,0,0,0-.66.85s1.51,8.63,1.82,10.66c.14,1.12,0,1.32,0,1.32l-2,3.44c-.29.46-.13.84.35.84H333a1.84,1.84,0,0,0,1.39-.85l8.88-15S344.09,11.23,343.3,11.25Z" transform="translate(-0.02 -1.16)"/><path d="M357.87,9.89a3.36,3.36,0,0,0-1.22-1.32,5.51,5.51,0,0,0-1.94-.71,15.35,15.35,0,0,0-2.62-.2h-4.66a1.15,1.15,0,0,0-1.06.85l-3.13,13.64a.65.65,0,0,0,.67.84h2.23a1.17,1.17,0,0,0,1.07-.84l.75-3.32A1.16,1.16,0,0,1,349,18h.63A10.56,10.56,0,0,0,356,16.31a5.26,5.26,0,0,0,2.26-4.42A4.14,4.14,0,0,0,357.87,9.89Zm-4.8,4.46a4.77,4.77,0,0,1-2.81.73h-.56a.67.67,0,0,1-.68-.85l.68-2.89a1.12,1.12,0,0,1,1.06-.84h.72a3.72,3.72,0,0,1,1.94.43,1.51,1.51,0,0,1,.65,1.33A2.45,2.45,0,0,1,353.07,14.35Z" transform="translate(-0.02 -1.16)"/><path d="M328.16,11.79a8.38,8.38,0,0,0-4-.71,17.64,17.64,0,0,0-2.7.21c-.67.1-.73.12-1.14.21a1.29,1.29,0,0,0-1,1l-.27,1.12c-.16.71.25.69.43.63a11.21,11.21,0,0,1,1.33-.4,10.3,10.3,0,0,1,2.09-.28,5.46,5.46,0,0,1,2,.29,1,1,0,0,1,.67,1l0,.32-.33.2c-1.26.08-2.17.19-3.28.35a10.2,10.2,0,0,0-2.83.78,4.35,4.35,0,0,0-1.92,1.51,4.16,4.16,0,0,0-.63,2.33,2.75,2.75,0,0,0,.9,2.12,3.42,3.42,0,0,0,2.35.8,6.2,6.2,0,0,0,1.4-.13l1.08-.37.91-.51.84-.55h0l-.09.36v0h0a.66.66,0,0,0,.59.83h2.11a1.16,1.16,0,0,0,1-.83l1.62-7,.09-.57,0-.54A2.34,2.34,0,0,0,328.16,11.79Zm-3.59,7.9-.35.46-.88.45a3.06,3.06,0,0,1-1.16.26,2.57,2.57,0,0,1-1.27-.25l-.43-.83a1.68,1.68,0,0,1,.32-1.09l.95-.64a7.87,7.87,0,0,1,1.47-.33c.51-.07,1.51-.18,1.64-.19l.16.28C325,18,324.7,19.15,324.57,19.69Z" transform="translate(-0.02 -1.16)"/><path d="M368.63,11.8a8.42,8.42,0,0,0-4-.72,16.39,16.39,0,0,0-2.7.22c-.67.1-.73.12-1.15.2a1.31,1.31,0,0,0-1,1l-.28,1.12c-.15.71.25.68.44.62.37-.11.57-.21,1.32-.39a10.39,10.39,0,0,1,2.1-.28,5.54,5.54,0,0,1,2,.29,1,1,0,0,1,.67,1l0,.31-.31.21c-1.28.07-2.2.19-3.29.35a10,10,0,0,0-2.83.78,4.41,4.41,0,0,0-1.92,1.51,4.08,4.08,0,0,0-.64,2.32,2.71,2.71,0,0,0,.92,2.12,3.38,3.38,0,0,0,2.34.81,6.92,6.92,0,0,0,1.4-.13l1.07-.37.92-.51.84-.56v0l-.07.36h0a.65.65,0,0,0,.59.84h2.07l0,0a1.15,1.15,0,0,0,.95-.84l1.62-7,.09-.57,0-.54A2.35,2.35,0,0,0,368.63,11.8ZM365,19.7l-.36.47-.87.44a3.06,3.06,0,0,1-1.16.26,2.52,2.52,0,0,1-1.27-.25l-.43-.83a1.7,1.7,0,0,1,.32-1.09,2.27,2.27,0,0,1,1-.64,7.69,7.69,0,0,1,1.47-.33c.5-.06,1.51-.18,1.64-.18l.15.27C365.46,18,365.17,19.16,365,19.7Z" transform="translate(-0.02 -1.16)"/><path d="M376.31,7.78h-2a1.13,1.13,0,0,0-1,.67l-.11.18-.1.44-2.79,12.68-.09.39h0a.63.63,0,0,0,.56.79l0,0h2.08a1.15,1.15,0,0,0,1-.69l.1-.16,3-13.52h0A.65.65,0,0,0,376.31,7.78Z" transform="translate(-0.02 -1.16)"/></svg>